PathFileType	4	(X/Y/Z)	/Users/itak/Documents/Research/Walk-IL/dataset/trc/00092_00006.trc
DataRate	CameraRate	NumFrames	NumMarkers	Units	OrigDataRate	OrigDataStartFrame	OrigNumFrames
100.000000	100.000000	4	53	mm	100.000000	378	505
Frame#	Time	RPSI			LPSI			L3			STRN			T10			C7			CLAV			RBAK			LBAK			LSHO			LUPA			LAEL			LAOL			LWTS			LWPS			LFRA			LIFD			LHPS			LHTS			RSHO			RUPA			RAEL			RAOL			RWTS			RWPS			RFRA			RIFD			RHTS			RHPS			RBHD			LFHD			RFHD			LBHD			LHIP			RHIP			RASI			LASI			LKNE			LTHI			LANK			LTIP			LTOE			LMT1			LMT5			LHEE			RKNE			RTHI			RANK			RTIP			RTOE			RMT1			RMT5			RHEE			
		X1	Y1	Z1	X2	Y2	Z2	X3	Y3	Z3	X4	Y4	Z4	X5	Y5	Z5	X6	Y6	Z6	X7	Y7	Z7	X8	Y8	Z8	X9	Y9	Z9	X10	Y10	Z10	X11	Y11	Z11	X12	Y12	Z12	X13	Y13	Z13	X14	Y14	Z14	X15	Y15	Z15	X16	Y16	Z16	X17	Y17	Z17	X18	Y18	Z18	X19	Y19	Z19	X20	Y20	Z20	X21	Y21	Z21	X22	Y22	Z22	X23	Y23	Z23	X24	Y24	Z24	X25	Y25	Z25	X26	Y26	Z26	X27	Y27	Z27	X28	Y28	Z28	X29	Y29	Z29	X30	Y30	Z30	X31	Y31	Z31	X32	Y32	Z32	X33	Y33	Z33	X34	Y34	Z34	X35	Y35	Z35	X36	Y36	Z36	X37	Y37	Z37	X38	Y38	Z38	X39	Y39	Z39	X40	Y40	Z40	X41	Y41	Z41	X42	Y42	Z42	X43	Y43	Z43	X44	Y44	Z44	X45	Y45	Z45	X46	Y46	Z46	X47	Y47	Z47	X48	Y48	Z48	X49	Y49	Z49	X50	Y50	Z50	X51	Y51	Z51	X52	Y52	Z52	X53	Y53	Z53	

379	3.78	-53.82571029663086	1006.511962890625	789.59033203125	118.4725723266602	990.3941650390625	750.9041748046875	33.92689514160156	1057.866943359375	769.9664916992188	90.085693359375	1264.36572265625	1005.770568847656	25.89149284362793	1190.599853515625	749.9447631835938	40.54893493652344	1460.08740234375	795.6113891601562	86.24542236328125	1377.6728515625	971.9321899414062	-49.65755081176758	1319.62548828125	758.6986694335938	131.8458099365234	1420.171752929688	749.7437133789062	230.3622131347656	1427.02099609375	829.1918334960938	297.72802734375	1300.70947265625	784.1560668945312	319.0145874023438	1086.602416992188	777.8303833007812	215.9056701660156	1075.273193359375	748.5321655273438	293.5055847167969	836.3700561523438	855.983154296875	327.6669921875	835.3491821289062	778.8389892578125	333.0483703613281	977.182861328125	781.5653686523438	277.27099609375	652.27392578125	847.45068359375	335.6272888183594	751.679443359375	800.1068115234375	305.5752868652344	752.4777221679688	864.4058227539062	-113.0643920898438	1424.498291015625	904.92919921875	-176.7833251953125	1352.787475585938	917.79638671875	-200.4679718017578	1082.461303710938	935.8434448242188	-103.7176361083984	1065.189819335938	918.4415283203125	-78.93167114257812	877.4904174804688	1104.056640625	-146.3615570068359	839.1878662109375	1065.653564453125	-194.2297210693359	1004.495361328125	965.4144897460938	-28.41860389709473	703.4888916015625	1143.13427734375	-55.54458618164062	788.9237670898438	1152.603881835938	-123.6493072509766	766.123779296875	1123.0068359375	-7.992851734161377	1614.032592773438	819.4578247070312	111.1015853881836	1695.07421875	988.91796875	-12.91039562225342	1677.989624023438	978.8242797851562	127.5693435668945	1638.755981445312	820.1550903320312	224.2039947509766	932.1873779296875	841.575927734375	-118.0391464233398	941.2857666015625	871.1629028320312	-78.5723876953125	956.9415893554688	988.5889282226562	188.6546478271484	950.3139038085938	961.9887084960938	207.9984741210938	514.748046875	1060.92578125	237.4721984863281	632.0175170898438	977.8707275390625	244.4152984619141	46.69247055053711	1103.606201171875	238.3842468261719	271.5838928222656	1079.402709960938	242.5469818115234	94.28755187988281	1300.85009765625	189.0861358642578	78.47465515136719	1257.468872070312	284.2230834960938	59.18451690673828	1202.706909179688	166.2897338867188	36.39969635009766	1056.770629882812	-60.43066787719727	495.5194702148438	893.635009765625	-100.9051666259766	761.2264404296875	938.0797119140625	-93.16745758056641	66.71778869628906	652.7753295898438	-69.51872253417969	375.4630432128906	841.4187622070312	26.61042594909668	38.57259368896484	831.9243774414062	37.14995193481445	48.01820373535156	762.64404296875	-60.73197937011719	48.02056503295898	771.32763671875	-59.63943481445312	83.40641784667969	590.2510375976562	
380	3.79	-50.60583114624023	1007.446960449219	796.9044799804688	121.6252899169922	991.8469848632812	758.0044555664062	37.36704254150391	1058.370483398438	777.3480834960938	93.42214202880859	1265.432495117188	1012.706420898438	29.95126914978027	1191.328857421875	756.5733642578125	44.79348754882812	1460.9072265625	801.9321899414062	89.60701751708984	1378.668823242188	978.6925659179688	-45.28466415405273	1320.330322265625	764.798828125	136.4476928710938	1420.958374023438	756.6727905273438	234.5137634277344	1428.051391601562	836.7189331054688	302.3851928710938	1301.6455078125	792.604248046875	323.7877502441406	1087.433959960938	787.3123779296875	220.9915008544922	1075.94775390625	757.110595703125	297.7344970703125	837.5755004882812	866.3043212890625	332.4046020507812	836.15673828125	789.4041137695312	337.7618408203125	978.0077514648438	791.5843505859375	281.6166381835938	653.4771728515625	858.7113037109375	340.1918640136719	752.594970703125	811.1891479492188	309.7573852539062	753.7658081054688	875.2612915039062	-109.3627166748047	1425.261474609375	910.6463623046875	-173.0798950195312	1353.486328125	923.0924682617188	-196.8931121826172	1083.339233398438	939.9761962890625	-100.310432434082	1065.892211914062	923.1975708007812	-78.52470397949219	875.62109375	1106.82080078125	-146.2552795410156	838.6318969726562	1067.592895507812	-191.3392791748047	1005.276916503906	968.97021484375	-30.35370254516602	700.586181640625	1144.231811523438	-56.29367065429688	786.3121948242188	1154.500366210938	-124.6299133300781	764.5995483398438	1124.299072265625	-4.170747756958008	1614.81005859375	825.2855834960938	114.0413360595703	1696.185424804688	995.1576538085938	-9.905223846435547	1678.928344726562	984.5692749023438	131.3145141601562	1639.702392578125	826.5521240234375	227.6539154052734	933.6697998046875	849.216064453125	-115.1562271118164	941.9334716796875	878.0731201171875	-75.10646057128906	957.721435546875	995.7198486328125	191.8654174804688	951.1644897460938	969.1205444335938	209.5982666015625	515.1941528320312	1066.939819335938	239.6114044189453	632.9402465820312	984.5616455078125	244.8411102294922	46.51055145263672	1104.757568359375	239.5849609375	271.4900207519531	1083.924072265625	243.2127532958984	89.7071533203125	1303.351440429688	189.7126312255859	75.196044921875	1259.556518554688	284.6514892578125	56.81743240356445	1204.086669921875	166.6466827392578	37.46361541748047	1057.77392578125	-57.3032112121582	495.7266540527344	901.3350219726562	-97.67385101318359	761.629150390625	945.1598510742188	-92.5638427734375	70.39902496337891	654.0269775390625	-67.37621307373047	376.2230834960938	847.7357177734375	26.64494323730469	38.61334228515625	831.9494018554688	37.26829147338867	48.5512809753418	763.3211059570312	-60.51374053955078	48.74356842041016	772.2174072265625	-58.72537231445312	88.38521575927734	592.0574340820312	
381	3.8	-47.50212860107422	1008.591491699219	804.2046508789062	124.6525421142578	993.4373168945312	765.0505981445312	40.67949295043945	1059.076538085938	784.7353515625	96.77111053466797	1266.687866210938	1019.626342773438	33.87565231323242	1192.20361328125	763.1665649414062	49.02618789672852	1461.867065429688	808.2348022460938	92.98577880859375	1379.853637695312	985.416015625	-40.95621490478516	1321.204345703125	770.9219360351562	140.9822387695312	1421.907592773438	763.5531616210938	238.6159362792969	1429.309814453125	844.1764526367188	307.0357055664062	1302.830322265625	801.0079345703125	328.4981689453125	1088.52197265625	796.8944091796875	226.0549468994141	1076.86572265625	765.7527465820312	301.8709716796875	839.0438842773438	876.797607421875	337.1541442871094	837.2405395507812	800.1957397460938	342.4408874511719	979.10302734375	801.774169921875	285.8727722167969	654.9393920898438	870.0487670898438	344.7396850585938	753.7802124023438	822.4882202148438	313.8172912597656	755.3062133789062	886.2831420898438	-105.6461410522461	1426.272583007812	916.3472290039062	-169.3833160400391	1354.463134765625	928.3815307617188	-193.2933197021484	1084.529174804688	943.9403686523438	-96.90904235839844	1066.903686523438	927.873291015625	-78.29701232910156	873.9511108398438	1109.344360351562	-146.3175659179688	838.3665771484375	1069.220825195312	-188.3778991699219	1006.352172851562	972.3749389648438	-32.59832000732422	697.84033203125	1144.927978515625	-57.26196670532227	783.8998413085938	1156.071044921875	-125.8447952270508	763.3213500976562	1125.237182617188	-0.3785289824008942	1615.78125	831.09375	116.9769515991211	1697.421752929688	1001.393981933594	-6.916481971740723	1679.98193359375	990.3158569335938	135.0408172607422	1640.838745117188	832.9348754882812	231.0817260742188	935.3369140625	856.8181762695312	-112.4264144897461	942.7562255859375	884.9588623046875	-71.47613525390625	958.7758178710938	1002.96337890625	195.0831909179688	952.1901245117188	976.1543579101562	211.3501739501953	515.726318359375	1072.852905273438	241.7711944580078	634.051025390625	991.2445068359375	245.3550262451172	46.27790832519531	1105.711791992188	240.9329223632812	271.426025390625	1088.061279296875	243.9857482910156	85.39972686767578	1305.456665039062	190.4341735839844	72.22266387939453	1261.29931640625	285.1806030273438	54.47171783447266	1205.228149414062	167.070068359375	38.47224807739258	1058.642333984375	-54.19590377807617	495.9977416992188	909.5618896484375	-94.41356658935547	762.1792602539062	952.3876953125	-91.76549530029297	74.40165710449219	655.4746704101562	-65.25670623779297	377.1214904785156	854.4689331054688	26.67142677307129	38.67608261108398	831.9468383789062	37.45988082885742	49.15596389770508	764.0877075195312	-60.2167854309082	49.57013702392578	773.2139282226562	-57.50109100341797	93.79837799072266	594.1917114257812	
382	3.81	-44.46834182739258	1009.900451660156	811.43115234375	127.6071243286133	995.0807495117188	772.0380859375	43.90737533569336	1059.966918945312	792.0795288085938	100.1090774536133	1268.084106445312	1026.520629882812	37.68904113769531	1193.1923828125	769.7094116210938	53.24269485473633	1462.93408203125	814.5161743164062	96.36790466308594	1381.18359375	992.0991821289062	-36.6718635559082	1322.2119140625	777.0604858398438	145.4424743652344	1422.976928710938	770.3849487304688	242.6597442626953	1430.751098632812	851.5596313476562	311.6644897460938	1304.223999023438	809.3460693359375	333.1466979980469	1089.827392578125	806.5361328125	231.0863494873047	1077.985961914062	774.437255859375	305.920654296875	840.74755859375	887.456787109375	341.9070434570312	838.5658569335938	811.2037353515625	347.0812683105469	980.43212890625	812.1045532226562	290.0267028808594	656.6226196289062	881.46875	349.2681274414062	755.204833984375	833.9984741210938	317.7531433105469	757.068115234375	897.4688720703125	-101.9221343994141	1427.498168945312	922.0260620117188	-165.7066802978516	1355.69091796875	933.6593017578125	-189.7103576660156	1085.994873046875	947.7198486328125	-93.49617767333984	1068.190063476562	932.4937744140625	-78.24716949462891	872.4876708984375	1111.65185546875	-146.4878387451172	838.363037109375	1070.5703125	-185.3907775878906	1007.696594238281	975.5984497070312	-35.10657119750977	695.2728881835938	1145.244384765625	-58.44464874267578	781.6856079101562	1157.335205078125	-127.2641220092773	762.285400390625	1125.82568359375	3.378664493560791	1616.893676757812	836.88037109375	119.9072418212891	1698.747314453125	1007.616149902344	-3.945054292678833	1681.116943359375	996.0573120117188	138.7398681640625	1642.114501953125	839.2944946289062	234.4561157226562	937.0715942382812	864.29443359375	-109.7793807983398	943.7213745117188	891.7958984375	-67.75244903564453	960.0387573242188	1010.226318359375	198.2986297607422	953.3370361328125	983.0963745117188	213.2414245605469	516.2630615234375	1078.614379882812	243.9704742431641	635.2498168945312	997.8764038085938	245.9219970703125	45.98941040039062	1106.505249023438	242.3805694580078	271.3594970703125	1091.804931640625	244.8204803466797	81.36479949951172	1307.2138671875	191.2073211669922	69.53111267089844	1262.7451171875	285.7684020996094	52.17993545532227	1206.1533203125	167.5338592529297	39.41221237182617	1059.400146484375	-51.17858505249023	496.316650390625	918.3416748046875	-91.15725708007812	762.8672485351562	959.7430419921875	-90.75534820556641	78.70996856689453	657.1568603515625	-63.20668029785156	378.1490173339844	861.6423950195312	26.68868255615234	38.75666046142578	831.9091186523438	37.73174285888672	49.82962036132812	764.9514770507812	-59.82537078857422	50.50702285766602	774.3247680664062	-55.95349502563477	99.63679504394531	596.7119140625	
